<svg viewBox="0 0 1024 1024" xmlns="http://www.w3.org/2000/svg" width="200" height="200"><path fill="currentColor" d="M512 85.333c-235.648 0-426.667 191.02-426.667 426.667s191.02 426.667 426.667 426.667 426.667-191.02 426.667-426.667S747.648 85.333 512 85.333zm0 768c-186.326 0-341.334-155.008-341.334-341.333S325.674 170.667 512 170.667s341.333 155.008 341.333 341.333S698.326 853.333 512 853.333z"></path><path fill="currentColor" d="M512 213.333c-164.928 0-298.667 133.739-298.667 298.667S347.072 810.667 512 810.667 810.667 676.928 810.667 512 676.928 213.333 512 213.333zm-115.2 384L320 512l76.8-85.333h230.4L704 512l-76.8 85.333H396.8z"></path></svg> 